<?xml version="1.0" encoding="utf-8"?>
<!-- Generator: Adobe Illustrator 25.3.1, SVG Export Plug-In . SVG Version: 6.00 Build 0)  -->
<svg version="1.1" id="icon" xmlns="http://www.w3.org/2000/svg" xmlns:xlink="http://www.w3.org/1999/xlink" height="24px" viewBox="0 0 24 24" width="24px" fill="current" xml:space="preserve">
<g>
	<path class="st0" d="M4.6,17.1l-2.1-1.7c-0.1,0.2-0.2,0.4-0.3,0.5c-1.1,2.2-0.8,4.5,0.5,5.2c0.9,0.4,2.2,0,3.2-1.1L4.6,17.1z"/>
	<path class="st0" d="M19.5,17.1l2.1-1.7c0.1,0.2,0.2,0.4,0.3,0.5c1.1,2.2,0.8,4.5-0.5,5.2c-0.9,0.4-2.2,0-3.2-1.1L19.5,17.1z"/>
	<path d="M9,11.9c-0.7,0-1.2,0.6-1.2,1.2s0.6,1.2,1.2,1.2s1.2-0.6,1.2-1.2S9.7,11.9,9,11.9z M15,11.9c-0.7,0-1.2,0.6-1.2,1.2
		s0.6,1.2,1.2,1.2s1.2-0.6,1.2-1.2S15.7,11.9,15,11.9z M12,2.2c-5.5,0-10,4.5-10,10s4.5,10,10,10s10-4.5,10-10S17.5,2.2,12,2.2z
		 M12,20.2c-4.4,0-8-3.6-8-8c0-0.3,0-0.6,0.1-0.9c2.4-1.1,4.2-3,5.2-5.4c1.8,2.6,4.8,4.2,8.2,4.2c0.8,0,1.5-0.1,2.2-0.3
		c0.2,0.7,0.3,1.5,0.3,2.3C20,16.6,16.4,20.2,12,20.2z"/>
</g>
</svg>
